<svg width="38" height="59" viewBox="0 0 38 59" fill="currentColor" stroke="currentColor" xmlns="http://www.w3.org/2000/svg">
    <path d="M18.3386 1.03951C17.2523 1.05919 16.1478 1.73269 15.7003 3.23613C15.1529 5.0756 15.2806 25.776 14.4266 25.908C13.5187 26.0483 13.674 9.25179 13.3439 6.13021C13.0397 3.25411 8.65747 3.30228 8.22041 6.35126C8.02577 7.70911 9.14613 29.3471 8.20864 29.7061C7.2386 30.0776 6.21454 17.1944 5.27723 13.6307C4.80115 11.8206 1.96146 11.5671 1.07888 14.0162C0.58778 15.379 2.53912 23.7585 2.81847 31.1054C3.50039 46.7821 7.39738 47.7501 7.58708 52.1052V57.9922H26.2124C26.2124 57.9922 25.859 54.1516 26.2124 52.2852C27.1418 47.3766 30.9481 42.5626 31.6837 38.3976C32.6553 32.7556 36.7216 23.3734 36.6931 22.3459C36.6753 22.2836 34.0796 19.6854 31.5074 23.0602C29.2656 26.0014 28.3286 33.2025 27.3095 31.9945C26.732 31.3099 26.218 29.5846 26.3017 27.2394C26.4996 21.6903 27.7687 9.16446 27.6107 8.04643C27.2413 5.43212 23.7056 4.74737 22.8686 7.30951C22.0959 9.67469 21.6569 26.607 20.6825 26.1279C20.289 25.9345 21.1894 4.71135 20.9782 3.23613C20.7776 1.83471 19.5698 1.0172 18.3386 1.03951Z" stroke-linecap="round" stroke-linejoin="round"/>
</svg>
