<svg width="38" height="59" viewBox="0 0 38 59" fill="currentColor" stroke="currentColor" xmlns="http://www.w3.org/2000/svg">
<path d="M19.6614 1.03951C20.7477 1.05919 21.8522 1.73269 22.2997 3.23613C22.8471 5.0756 22.7194 25.776 23.5734 25.908C24.4813 26.0483 24.326 9.25179 24.6561 6.13021C24.9603 3.25411 29.3425 3.30228 29.7796 6.35126C29.9742 7.70911 28.8539 29.3471 29.7914 29.7061C30.7614 30.0776 31.7855 17.1944 32.7228 13.6307C33.1988 11.8206 36.0385 11.5671 36.9211 14.0162C37.4122 15.379 35.4609 23.7585 35.1815 31.1054C34.4996 46.7821 30.6026 47.7501 30.4129 52.1052V57.9922H11.7876C11.7876 57.9922 12.141 54.1516 11.7876 52.2852C10.8582 47.3766 7.05193 42.5626 6.31629 38.3976C5.34468 32.7556 1.27845 23.3734 1.30691 22.3459C1.32467 22.2836 3.92041 19.6854 6.49265 23.0602C8.73443 26.0014 9.67145 33.2025 10.6905 31.9945C11.268 31.3099 11.782 29.5846 11.6983 27.2394C11.5004 21.6903 10.2313 9.16446 10.3893 8.04643C10.7587 5.43212 14.2944 4.74737 15.1314 7.30951C15.9041 9.67469 16.3431 26.607 17.3175 26.1279C17.711 25.9345 16.8106 4.71135 17.0218 3.23613C17.2224 1.83471 18.4302 1.0172 19.6614 1.03951Z" stroke-linecap="round" stroke-linejoin="round"/>
</svg>
