<svg width="81" height="81" viewBox="0 0 81 81" fill="none" xmlns="http://www.w3.org/2000/svg">
<path d="M17.0917 64.6514C17.0917 61.5421 17.6972 58.4633 18.8736 55.5907C20.05 52.7181 21.7742 50.1081 23.9479 47.9095C26.1215 45.7109 28.702 43.9669 31.5421 42.777C34.3821 41.5872 37.426 40.9748 40.5 40.9748C43.574 40.9748 46.6179 41.5872 49.458 42.777C52.298 43.9669 54.8785 45.7109 57.0521 47.9095C59.2258 50.1081 60.95 52.7182 62.1264 55.5907C63.3028 58.4633 63.9083 61.5421 63.9083 64.6514L17.0917 64.6514Z" fill="white"/>
<path d="M57.8183 26.8452C57.8183 36.336 50.1498 44.0298 40.6903 44.0298C31.2308 44.0298 23.5623 36.336 23.5623 26.8452C23.5623 17.3544 31.2308 9.66055 40.6903 9.66055C50.1498 9.66055 57.8183 17.3544 57.8183 26.8452Z" fill="white"/>
<path d="M81 40.5C81 62.8675 62.8675 81 40.5 81C18.1325 81 0 62.8675 0 40.5C0 18.1325 18.1325 0 40.5 0C62.8675 0 81 18.1325 81 40.5ZM3.85779 40.5C3.85779 60.7369 20.2631 77.1422 40.5 77.1422C60.7369 77.1422 77.1422 60.7369 77.1422 40.5C77.1422 20.2631 60.7369 3.85779 40.5 3.85779C20.2631 3.85779 3.85779 20.2631 3.85779 40.5Z" fill="white"/>
</svg>
